<svg width="90px" height="90px" viewBox="0 0 2 2" xmlns="http://www.w3.org/2000/svg"><path d="M1 0C0.449 0 0 0.449 0 1s0.449 1 1 1 1 -0.449 1 -1 -0.449 -1 -1 -1zm0 0.25c0.416 0 0.75 0.334 0.75 0.75s-0.334 0.75 -0.75 0.75 -0.75 -0.334 -0.75 -0.75 0.334 -0.75 0.75 -0.75zm0 0.234a0.141 0.141 0 1 0 0 0.281 0.141 0.141 0 0 0 0 -0.281zM0.81 0.875A0.063 0.063 0 0 0 0.813 1H0.875v0.375h-0.063c-0.035 0 -0.063 0.028 -0.063 0.063s0.028 0.063 0.063 0.063h0.375c0.035 0 0.063 -0.028 0.063 -0.063s-0.028 -0.063 -0.063 -0.063H1.125V0.875H0.81zm0 0" fill="#d8bd43"/></svg>