<svg version="1.1" id="Capa_1" xmlns="http://www.w3.org/2000/svg" xmlns:xlink="http://www.w3.org/1999/xlink" x="0px" y="0px" viewBox="0 0 50 50" style="enable-background:new 0 0 297.5 297.5;" xml:space="preserve" width="50" height="50"><g><g id="XMLID_26_"><g><path style="fill:#d8bd43;" d="M43.666 4.881v14.066H20.23l-2.44 -4.882a1.694 1.694 0 0 0 -1.514 -0.934H6.334V4.881h37.331zm-2.939 4.124c0 -0.654 -0.529 -1.185 -1.185 -1.185h-14.541c-0.654 0 -1.183 0.531 -1.183 1.185s0.529 1.185 1.183 1.185h14.541c0.655 0 1.185 -0.531 1.185 -1.185zm0 5.817c0 -0.655 -0.529 -1.185 -1.185 -1.185h-14.541a1.183 1.183 0 0 0 -1.183 1.185c0 0.654 0.529 1.183 1.183 1.183h14.541c0.655 0 1.185 -0.529 1.185 -1.183zM20.368 9.005c0 -0.654 -0.529 -1.185 -1.185 -1.185h-5.815c-0.655 0 -1.185 0.531 -1.185 1.185s0.529 1.185 1.185 1.185h5.815c0.655 0 1.185 -0.531 1.185 -1.185z"/><path style="fill:#d8bd43;" d="M46.575 22.329v18.857c0 2.168 -1.765 3.933 -3.934 3.933H7.36c-2.168 0 -3.933 -1.765 -3.933 -3.933V16.513h11.803l2.44 4.882c0.287 0.573 0.872 0.934 1.513 0.934h27.392zm-15.123 11.005c0 -0.934 -0.758 -1.691 -1.692 -1.691h-3.067v-3.067c0 -0.934 -0.758 -1.692 -1.692 -1.692s-1.691 0.758 -1.691 1.692v3.067h-3.067c-0.934 0 -1.692 0.756 -1.692 1.691s0.758 1.692 1.692 1.692h3.067v3.067c0 0.934 0.756 1.692 1.691 1.692s1.692 -0.758 1.692 -1.692v-3.067h3.067c0.934 0 1.692 -0.758 1.692 -1.692z"/><path d="M49.958 20.637v20.55c0 4.035 -3.282 7.318 -7.318 7.318H7.36C3.324 48.504 0.042 45.222 0.042 41.187V14.822c0 -0.934 0.758 -1.692 1.692 -1.692h1.217V3.188c0 -0.934 0.756 -1.692 1.691 -1.692h40.716c0.934 0 1.692 0.758 1.692 1.692v15.758h1.217c0.934 0 1.691 0.756 1.691 1.691zm-3.383 20.55v-18.857H19.183c-0.64 0 -1.225 -0.361 -1.513 -0.934L15.23 16.513H3.427v24.674c0 2.168 1.765 3.933 3.933 3.933h35.281c2.17 0 3.934 -1.765 3.934 -3.933zm-2.909 -22.24V4.881H6.334v8.249h9.941c0.64 0 1.227 0.361 1.514 0.934l2.44 4.882h23.435z"/><path d="M39.541 7.82c0.655 0 1.185 0.531 1.185 1.185s-0.529 1.185 -1.185 1.185h-14.541c-0.654 0 -1.183 -0.531 -1.183 -1.185s0.529 -1.185 1.183 -1.185h14.541z"/><path d="M39.541 13.637c0.655 0 1.185 0.529 1.185 1.185a1.183 1.183 0 0 1 -1.185 1.183h-14.541c-0.654 0 -1.183 -0.529 -1.183 -1.183 0 -0.655 0.529 -1.185 1.183 -1.185h14.541z"/><path d="M29.76 31.644c0.934 0 1.692 0.756 1.692 1.691s-0.758 1.692 -1.692 1.692h-3.067v3.067c0 0.934 -0.758 1.692 -1.692 1.692s-1.691 -0.758 -1.691 -1.692v-3.067h-3.067c-0.934 0 -1.692 -0.758 -1.692 -1.692s0.758 -1.691 1.692 -1.691h3.067v-3.067c0 -0.934 0.756 -1.692 1.691 -1.692s1.692 0.758 1.692 1.692v3.067h3.067z"/><path d="M19.183 7.82c0.655 0 1.185 0.531 1.185 1.185s-0.529 1.185 -1.185 1.185h-5.815c-0.655 0 -1.185 -0.531 -1.185 -1.185s0.529 -1.185 1.185 -1.185h5.815z"/></g><g/></g></g></svg>