
<svg width="70px" height="70px" viewBox="0 0 0.938 0.938" fill="#d8bd43" xmlns="http://www.w3.org/2000/svg"><path fill-rule="evenodd" clip-rule="evenodd" d="M0.469 0.066a0.028 0.028 0 0 1 0.028 0.028v0.432l0.14 -0.14a0.028 0.028 0 1 1 0.04 0.04L0.489 0.614a0.028 0.028 0 0 1 -0.04 0L0.261 0.426a0.028 0.028 0 1 1 0.04 -0.04l0.14 0.14V0.094a0.028 0.028 0 0 1 0.028 -0.028Zm-0.313 0.559a0.031 0.031 0 0 1 0.031 0.031v0.094c0 0.035 0.028 0.063 0.062 0.063h0.438a0.062 0.062 0 0 0 0.062 -0.063v-0.094a0.031 0.031 0 0 1 0.063 0v0.094c0 0.069 -0.056 0.125 -0.125 0.125H0.25a0.125 0.125 0 0 1 -0.125 -0.125v-0.094a0.031 0.031 0 0 1 0.031 -0.031Z" fill="#d8bd43"/></svg>