<svg fill="#d8bd43" width="50px" height="50px" viewBox="0 0 1.5 1.5" version="1.2" baseProfile="tiny" xmlns="http://www.w3.org/2000/svg"><path d="m1.323 0.963 -0.369 -0.616c-0.049 -0.081 -0.122 -0.128 -0.204 -0.128s-0.155 0.046 -0.204 0.127L0.177 0.963c-0.028 0.046 -0.041 0.093 -0.041 0.138 0 0.036 0.009 0.071 0.026 0.101C0.202 1.272 0.279 1.313 0.375 1.313h0.75c0.096 0 0.173 -0.041 0.213 -0.111 0.018 -0.031 0.026 -0.064 0.026 -0.099 0.001 -0.046 -0.013 -0.094 -0.041 -0.141zM0.75 0.528c0.053 0 0.097 0.044 0.097 0.097 0 0.053 -0.043 0.097 -0.097 0.097 -0.053 0 -0.097 -0.044 -0.097 -0.097 0 -0.054 0.043 -0.097 0.097 -0.097zm0.106 0.529c-0.002 0.003 -0.05 0.058 -0.129 0.058h-0.009c-0.032 -0.002 -0.058 -0.016 -0.074 -0.039 -0.019 -0.029 -0.022 -0.069 -0.007 -0.114l0.026 -0.076c0.014 -0.043 0.001 -0.049 -0.007 -0.053l-0.009 -0.001c-0.016 0 -0.037 0.009 -0.044 0.013 -0.006 0.003 -0.014 0.002 -0.019 -0.004 -0.004 -0.006 -0.004 -0.014 0.001 -0.02 0.002 -0.003 0.054 -0.062 0.139 -0.057 0.032 0.002 0.058 0.016 0.074 0.039 0.02 0.029 0.022 0.069 0.007 0.114l-0.026 0.076c-0.014 0.043 -0.001 0.049 0.007 0.053l0.009 0.001c0.016 0 0.037 -0.009 0.044 -0.013 0.007 -0.004 0.014 -0.002 0.019 0.004 0.004 0.004 0.004 0.013 -0.001 0.018z"/></svg>