<svg width="50px" height="50px" viewBox="0 0 1 1" xmlns="http://www.w3.org/2000/svg" fill="#d8bd43"><path fill-rule="evenodd" clip-rule="evenodd" d="M0.677 0.168A0.253 0.253 0 0 0 0.501 0.094h-0.002a0.253 0.253 0 0 0 -0.25 0.25 0.236 0.236 0 0 0 0.038 0.132l0.197 0.399h0.033l0.197 -0.399a0.235 0.235 0 0 0 0.038 -0.132 0.253 0.253 0 0 0 -0.074 -0.176zM0.495 0.156l0.005 0.001 0.005 -0.001a0.192 0.192 0 0 1 0.184 0.19 0.171 0.171 0 0 1 -0.029 0.098l-0.001 0.002 -0.001 0.002 -0.157 0.319 -0.157 -0.319 -0.001 -0.002 -0.001 -0.002a0.171 0.171 0 0 1 -0.029 -0.098A0.192 0.192 0 0 1 0.495 0.156zm0.038 0.136a0.062 0.062 0 1 0 -0.07 0.104 0.062 0.062 0 0 0 0.07 -0.104zm-0.104 -0.052a0.125 0.125 0 1 1 0.139 0.208 0.125 0.125 0 0 1 -0.139 -0.208z"/></svg>