<svg version="1.1" id="Capa_1" xmlns="http://www.w3.org/2000/svg" xmlns:xlink="http://www.w3.org/1999/xlink" x="0px" y="0px" viewBox="0 0 50 50" style="enable-background:new 0 0 470 470;" xml:space="preserve" width="50" height="50"><g><path style="fill:#d8bd43;" d="m38.807 11.194 -1.049 -1.049 -8.141 8.141 2.096 2.096 8.141 -8.141 -1.047 -1.047z"/><path style="fill:#d8bd43;" d="m31.149 22.075 -5.151 -5.151a1.217 1.217 0 0 0 -0.866 -0.359 1.217 1.217 0 0 0 -0.866 0.359c-0.231 0.231 -0.359 0.539 -0.359 0.866s0.127 0.635 0.359 0.866c0.156 0.156 0.234 0.36 0.234 0.564s-0.078 0.408 -0.234 0.564a0.798 0.798 0 0 1 -1.128 0 1.217 1.217 0 0 0 -0.866 -0.359 1.217 1.217 0 0 0 -0.866 0.359 1.216 1.216 0 0 0 -0.359 0.866c0 0.327 0.127 0.635 0.359 0.866 0.156 0.156 0.234 0.36 0.234 0.564s-0.078 0.408 -0.234 0.564a0.798 0.798 0 0 1 -1.128 0 1.217 1.217 0 0 0 -0.866 -0.359 1.218 1.218 0 0 0 -0.866 0.359 1.217 1.217 0 0 0 -0.359 0.866c0 0.327 0.127 0.635 0.359 0.866a0.798 0.798 0 0 1 0 1.128 0.798 0.798 0 0 1 -1.128 0 1.217 1.217 0 0 0 -0.866 -0.359 1.217 1.217 0 0 0 -0.866 0.359c-0.231 0.231 -0.359 0.539 -0.359 0.866s0.127 0.635 0.359 0.866c0.156 0.156 0.234 0.36 0.234 0.564s-0.078 0.408 -0.234 0.564c-0.312 0.311 -0.817 0.312 -1.128 0a1.217 1.217 0 0 0 -0.866 -0.359 1.217 1.217 0 0 0 -0.866 0.359 1.217 1.217 0 0 0 -0.359 0.866 1.217 1.217 0 0 0 0.359 0.866c0.156 0.156 0.234 0.36 0.234 0.564s-0.078 0.408 -0.234 0.564a0.798 0.798 0 0 1 -1.128 0 1.217 1.217 0 0 0 -0.866 -0.359 1.217 1.217 0 0 0 -0.866 0.359c-0.478 0.478 -0.478 1.255 0 1.732l1.926 1.926 5.151 5.151a1.217 1.217 0 0 0 0.866 0.359c0.327 0 0.635 -0.127 0.866 -0.359s0.359 -0.539 0.359 -0.866 -0.127 -0.635 -0.359 -0.866c-0.156 -0.156 -0.234 -0.36 -0.234 -0.564s0.078 -0.408 0.234 -0.564a0.798 0.798 0 0 1 1.128 0 1.217 1.217 0 0 0 0.866 0.359c0.327 0 0.635 -0.127 0.866 -0.359s0.359 -0.539 0.359 -0.866c0 -0.327 -0.127 -0.635 -0.359 -0.866 -0.156 -0.156 -0.234 -0.36 -0.234 -0.564s0.078 -0.408 0.234 -0.564a0.798 0.798 0 0 1 1.128 0 1.217 1.217 0 0 0 0.866 0.359c0.327 0 0.635 -0.127 0.866 -0.359 0.477 -0.478 0.478 -1.255 0 -1.732a0.798 0.798 0 0 1 0 -1.128 0.798 0.798 0 0 1 1.128 0 1.217 1.217 0 0 0 0.866 0.359 1.217 1.217 0 0 0 0.866 -0.359 1.216 1.216 0 0 0 0.359 -0.866c0 -0.327 -0.127 -0.635 -0.359 -0.866 -0.156 -0.156 -0.234 -0.36 -0.234 -0.564s0.078 -0.408 0.234 -0.564a0.798 0.798 0 0 1 1.128 0 1.217 1.217 0 0 0 0.866 0.359 1.217 1.217 0 0 0 0.866 -0.359c0.231 -0.231 0.359 -0.539 0.359 -0.866s-0.127 -0.635 -0.359 -0.866c-0.156 -0.156 -0.234 -0.36 -0.234 -0.564s0.078 -0.408 0.234 -0.564a0.798 0.798 0 0 1 1.128 0 1.217 1.217 0 0 0 0.866 0.359 1.217 1.217 0 0 0 0.866 -0.359c0.478 -0.478 0.478 -1.255 0 -1.732l-1.927 -1.926zM17.644 36.049c-0.156 0.156 -0.36 0.234 -0.564 0.234s-0.408 -0.078 -0.564 -0.234l-2.564 -2.564a0.798 0.798 0 0 1 1.128 -1.128l2.564 2.564a0.798 0.798 0 0 1 0 1.128zm2.861 -2.861c-0.156 0.156 -0.36 0.234 -0.564 0.234s-0.408 -0.078 -0.564 -0.234l-2.564 -2.564a0.798 0.798 0 0 1 1.128 -1.128l2.564 2.564a0.798 0.798 0 0 1 0 1.128zm2.861 -2.861c-0.156 0.156 -0.36 0.234 -0.564 0.234s-0.408 -0.078 -0.564 -0.234l-2.564 -2.564a0.798 0.798 0 0 1 0 -1.128 0.798 0.798 0 0 1 1.128 0l2.564 2.564a0.798 0.798 0 0 1 0 1.128zm2.861 -2.861c-0.156 0.156 -0.36 0.234 -0.564 0.234s-0.408 -0.078 -0.564 -0.234l-2.564 -2.564a0.798 0.798 0 0 1 1.128 -1.128l2.564 2.564a0.798 0.798 0 0 1 0 1.128zm2.861 -2.861c-0.156 0.156 -0.36 0.234 -0.564 0.234s-0.408 -0.078 -0.564 -0.234l-2.564 -2.564a0.798 0.798 0 0 1 1.128 -1.128l2.564 2.564a0.798 0.798 0 0 1 0 1.128z"/><path style="fill:#d8bd43;" d="m13.42 38.676 -2.096 -2.096 -3.447 3.447 -0.77 2.019a0.797 0.797 0 0 1 -0.181 0.28l-1.693 1.693 0.749 0.749 1.693 -1.693a0.798 0.798 0 0 1 0.28 -0.181l2.019 -0.77 3.447 -3.447z"/><path style="fill:#000;" d="M48.959 1.041C48.288 0.37 47.396 0 46.446 0s-1.842 0.37 -2.513 1.041a0.798 0.798 0 0 0 0 1.128 0.798 0.798 0 0 0 1.128 0c0.37 -0.37 0.861 -0.574 1.384 -0.574s1.015 0.204 1.385 0.574c0.37 0.37 0.574 0.862 0.574 1.385s-0.204 1.015 -0.574 1.385c-0.37 0.37 -0.861 0.574 -1.384 0.574s-1.015 -0.204 -1.384 -0.574a0.798 0.798 0 0 0 -1.129 0l-4.563 4.563 -1.048 -1.048a0.798 0.798 0 0 0 -1.128 0l-8.705 8.705 -1.363 -1.363c-0.533 -0.533 -1.241 -0.826 -1.995 -0.826 -0.753 0 -1.462 0.293 -1.995 0.826 -0.533 0.533 -0.826 1.241 -0.826 1.995 0 0.013 0 0.027 0 0.04 -0.764 -0.008 -1.493 0.284 -2.035 0.826 -0.533 0.533 -0.826 1.241 -0.826 1.995l0 0.04c-0.765 -0.01 -1.493 0.284 -2.035 0.826 -0.533 0.533 -0.826 1.241 -0.826 1.995 0 0.014 0 0.027 0 0.04l-0.04 0c-0.753 0 -1.462 0.293 -1.995 0.826 -0.533 0.533 -0.826 1.241 -0.826 1.995l0 0.04a2.537 2.537 0 0 0 -0.04 0c-0.753 0 -1.462 0.293 -1.995 0.826 -0.533 0.533 -0.826 1.241 -0.826 1.995 0 0.013 0 0.027 0 0.04l-0.04 0c-0.754 0 -1.462 0.293 -1.995 0.826 -1.1 1.1 -1.1 2.889 0 3.989l1.363 1.363 -3.567 3.567a0.799 0.799 0 0 0 -0.181 0.28l-0.77 2.019 -2.136 2.136a0.798 0.798 0 0 0 0 1.128l0.374 0.374 -3.681 3.682a0.798 0.798 0 0 0 0 1.128C0.389 49.922 0.594 50 0.798 50s0.408 -0.078 0.564 -0.234l3.681 -3.681 0.374 0.374a0.798 0.798 0 0 0 1.129 0l2.136 -2.136 2.019 -0.77a0.798 0.798 0 0 0 0.28 -0.181l3.567 -3.567 1.363 1.363c0.533 0.533 1.241 0.826 1.995 0.826 0.754 0 1.462 -0.293 1.995 -0.826 0.533 -0.533 0.826 -1.241 0.826 -1.995 0 -0.013 0 -0.027 0 -0.04 0.769 0.008 1.493 -0.284 2.035 -0.826 0.533 -0.533 0.826 -1.241 0.826 -1.995l0 -0.04 0.04 0c0.753 0 1.462 -0.293 1.995 -0.826 0.56 -0.56 0.835 -1.299 0.824 -2.035 0.014 0 0.028 0 0.042 0 0.753 0 1.462 -0.293 1.995 -0.826 0.533 -0.533 0.826 -1.241 0.826 -1.995 0 -0.013 0 -0.027 0 -0.04 0.772 0.009 1.493 -0.284 2.035 -0.826 0.533 -0.533 0.826 -1.241 0.826 -1.995 0 -0.013 0 -0.027 0 -0.04 0.771 0.01 1.493 -0.284 2.035 -0.826 1.1 -1.1 1.1 -2.889 0 -3.989l-1.363 -1.363 8.706 -8.705a0.798 0.798 0 0 0 0 -1.128l-1.048 -1.048 4.062 -4.062c0.56 0.352 1.208 0.54 1.886 0.54 0.949 0 1.842 -0.37 2.513 -1.041 0.671 -0.671 1.041 -1.564 1.041 -2.513s-0.37 -1.842 -1.041 -2.513zM33.076 25.734a1.217 1.217 0 0 1 -0.866 0.359 1.217 1.217 0 0 1 -0.866 -0.359 0.798 0.798 0 0 0 -1.128 1.128c0.231 0.231 0.359 0.539 0.359 0.866s-0.127 0.635 -0.359 0.866a1.217 1.217 0 0 1 -0.866 0.359 1.217 1.217 0 0 1 -0.866 -0.359 0.798 0.798 0 0 0 -1.128 1.128 1.216 1.216 0 0 1 0.359 0.866c0 0.327 -0.127 0.635 -0.359 0.866a1.217 1.217 0 0 1 -0.866 0.359 1.217 1.217 0 0 1 -0.866 -0.359 0.798 0.798 0 0 0 -1.128 0 0.798 0.798 0 0 0 0 1.128c0.478 0.478 0.478 1.255 0 1.732a1.217 1.217 0 0 1 -0.866 0.359 1.217 1.217 0 0 1 -0.866 -0.359 0.798 0.798 0 0 0 -1.128 1.128 1.217 1.217 0 0 1 0.359 0.866c0 0.327 -0.127 0.635 -0.359 0.866s-0.539 0.359 -0.866 0.359a1.217 1.217 0 0 1 -0.866 -0.359 0.798 0.798 0 0 0 -1.128 1.128c0.231 0.231 0.359 0.539 0.359 0.866s-0.127 0.635 -0.359 0.866 -0.539 0.359 -0.866 0.359a1.217 1.217 0 0 1 -0.866 -0.359l-5.15 -5.15 -1.927 -1.927c-0.478 -0.478 -0.478 -1.255 0 -1.732a1.217 1.217 0 0 1 0.866 -0.359 1.217 1.217 0 0 1 0.866 0.359 0.798 0.798 0 0 0 1.362 -0.564 0.795 0.795 0 0 0 -0.234 -0.564 1.217 1.217 0 0 1 -0.359 -0.866c0 -0.327 0.127 -0.635 0.359 -0.866a1.217 1.217 0 0 1 0.866 -0.359c0.327 0 0.635 0.127 0.866 0.359a0.798 0.798 0 0 0 1.362 -0.564c0 -0.204 -0.078 -0.408 -0.234 -0.564 -0.231 -0.231 -0.359 -0.539 -0.359 -0.866s0.127 -0.635 0.359 -0.866a1.217 1.217 0 0 1 0.866 -0.359 1.217 1.217 0 0 1 0.866 0.359 0.798 0.798 0 0 0 1.128 -1.128 1.216 1.216 0 0 1 -0.359 -0.866c0 -0.327 0.127 -0.635 0.359 -0.866a1.217 1.217 0 0 1 0.866 -0.359 1.217 1.217 0 0 1 0.866 0.359 0.798 0.798 0 0 0 1.128 -1.128 1.216 1.216 0 0 1 -0.359 -0.866c0 -0.327 0.127 -0.635 0.359 -0.866a1.217 1.217 0 0 1 0.866 -0.359 1.217 1.217 0 0 1 0.866 0.359 0.798 0.798 0 0 0 1.128 -1.128c-0.231 -0.231 -0.359 -0.539 -0.359 -0.866s0.127 -0.635 0.359 -0.866a1.217 1.217 0 0 1 0.866 -0.359 1.217 1.217 0 0 1 0.866 0.359l5.151 5.151 1.927 1.927c0.478 0.477 0.478 1.255 0 1.732zM7.675 43.074l-1.693 1.693 -0.749 -0.749 1.693 -1.693a0.799 0.799 0 0 0 0.181 -0.28l0.77 -2.019 3.447 -3.447 2.096 2.096 -3.447 3.447 -2.019 0.77a0.797 0.797 0 0 0 -0.28 0.181zm21.943 -24.787 8.141 -8.141 1.047 1.047 1.049 1.049 -8.141 8.141 -2.096 -2.096z"/><path style="fill:#000;" d="M26.522 20.914a0.798 0.798 0 0 0 -1.128 1.128l2.564 2.564c0.156 0.156 0.36 0.234 0.564 0.234s0.408 -0.078 0.564 -0.234a0.798 0.798 0 0 0 0 -1.128l-2.564 -2.564z"/><path style="fill:#000;" d="M23.662 23.774a0.798 0.798 0 0 0 -1.128 1.128l2.564 2.564c0.156 0.156 0.36 0.234 0.564 0.234s0.408 -0.078 0.564 -0.234a0.798 0.798 0 0 0 0 -1.128l-2.564 -2.564z"/><path style="fill:#000;" d="M20.801 26.635a0.798 0.798 0 0 0 -1.128 0 0.798 0.798 0 0 0 0 1.128l2.564 2.564c0.156 0.156 0.36 0.234 0.564 0.234s0.408 -0.078 0.564 -0.234a0.798 0.798 0 0 0 0 -1.128l-2.564 -2.564z"/><path style="fill:#000;" d="M17.94 29.496a0.798 0.798 0 0 0 -1.128 1.128l2.564 2.564c0.156 0.156 0.36 0.234 0.564 0.234s0.408 -0.078 0.564 -0.234a0.798 0.798 0 0 0 0 -1.128l-2.564 -2.564z"/><path style="fill:#000;" d="M15.079 32.357a0.798 0.798 0 0 0 -1.128 1.128l2.564 2.564c0.156 0.156 0.36 0.234 0.564 0.234s0.408 -0.078 0.564 -0.234a0.798 0.798 0 0 0 0 -1.128l-2.564 -2.564z"/></g></svg>